<?xml version="1.0" encoding="UTF-8" standalone="no"?><!DOCTYPE svg PUBLIC "-//W3C//DTD SVG 1.1//EN" "http://www.w3.org/Graphics/SVG/1.1/DTD/svg11.dtd"><svg width="100%" height="100%" viewBox="0 0 1250 1280" version="1.1" xmlns="http://www.w3.org/2000/svg" xmlns:xlink="http://www.w3.org/1999/xlink" xml:space="preserve" xmlns:serif="http://www.serif.com/" style="fill-rule:evenodd;clip-rule:evenodd;stroke-linejoin:round;stroke-miterlimit:2;"><path d="M942.191,413.411c-0,-177.565 -144.464,-322.03 -322.031,-322.03c-177.565,0 -322.029,144.465 -322.029,322.03c0,163.688 122.797,299.147 281.09,319.336l-0,170.368c-12.877,9.827 -21.32,25.177 -21.32,42.625l-0,199.573c-0,29.707 24.081,53.79 53.789,53.79l16.941,-0c29.709,-0 53.79,-24.083 53.79,-53.79l0,-199.573c0,-17.448 -8.443,-32.798 -21.32,-42.625l0,-170.368c158.292,-20.189 281.09,-155.648 281.09,-319.336Zm-322.031,234.161c-81.384,0 -153.135,-41.783 -195.115,-104.976l138.52,-0l146.756,-146.756l36.019,36.017l19.319,-120.177l-122.241,17.255l35.841,35.841l-133.897,133.886l-143.061,0c-10.391,-26.457 -16.301,-55.151 -16.301,-85.251c-0,-129.116 105.045,-234.161 234.16,-234.161c129.117,0 234.162,105.045 234.162,234.161c0,129.116 -105.045,234.161 -234.162,234.161Z" style="fill:#334767;fill-rule:nonzero;"/></svg>