<?xml version="1.0" encoding="UTF-8" standalone="no"?><!DOCTYPE svg PUBLIC "-//W3C//DTD SVG 1.1//EN" "http://www.w3.org/Graphics/SVG/1.1/DTD/svg11.dtd"><svg width="100%" height="100%" viewBox="0 0 409 413" version="1.1" xmlns="http://www.w3.org/2000/svg" xmlns:xlink="http://www.w3.org/1999/xlink" xml:space="preserve" xmlns:serif="http://www.serif.com/" style="fill-rule:evenodd;clip-rule:evenodd;stroke-linejoin:round;stroke-miterlimit:2;"><path d="M312.5,37.5l-216.667,0c-16.25,0 -29.166,12.917 -29.166,29.167l-0,275c-0,16.25 12.916,29.166 29.166,29.166l216.667,0c16.25,0 29.167,-12.916 29.167,-29.166l-0,-275c-0,-16.25 -12.917,-29.167 -29.167,-29.167Zm-145.833,25l75,-0l-0,29.167l-75,-0l-0,-29.167Zm-4.167,116.667l79.167,-0c7.083,-0 12.5,5.416 12.5,12.5c-0,7.083 -5.417,12.5 -12.5,12.5l-79.167,-0c-7.083,-0 -12.5,-5.417 -12.5,-12.5c0,-7.084 5.417,-12.5 12.5,-12.5Zm108.333,125l-133.333,-0c-7.083,-0 -12.5,-5.417 -12.5,-12.5c0,-7.084 5.417,-12.5 12.5,-12.5l133.333,-0c7.084,-0 12.5,5.416 12.5,12.5c0,7.083 -5.416,12.5 -12.5,12.5Zm0,-50l-133.333,-0c-7.083,-0 -12.5,-5.417 -12.5,-12.5c0,-7.084 5.417,-12.5 12.5,-12.5l133.333,-0c7.084,-0 12.5,5.416 12.5,12.5c0,7.083 -5.416,12.5 -12.5,12.5Z" style="fill:#334767;fill-opacity:0.98;fill-rule:nonzero;"/></svg>