<?xml version="1.0" encoding="UTF-8" standalone="no"?><!DOCTYPE svg PUBLIC "-//W3C//DTD SVG 1.1//EN" "http://www.w3.org/Graphics/SVG/1.1/DTD/svg11.dtd"><svg width="100%" height="100%" viewBox="0 0 1705 1721" version="1.1" xmlns="http://www.w3.org/2000/svg" xmlns:xlink="http://www.w3.org/1999/xlink" xml:space="preserve" xmlns:serif="http://www.serif.com/" style="fill-rule:evenodd;clip-rule:evenodd;stroke-linejoin:round;stroke-miterlimit:2;"><path d="M1302.08,156.25l-902.779,0c-67.708,0 -121.525,53.821 -121.525,121.529l0,1145.83c0,67.708 53.817,121.525 121.525,121.525l902.779,-0c67.709,-0 121.53,-53.817 121.53,-121.525l-0,-1145.83c-0,-67.708 -53.821,-121.529 -121.53,-121.529Zm-607.637,104.167l312.5,-0l-0,121.529l-312.5,-0l-0,-121.529Zm-17.363,486.112l329.863,0c29.512,0 52.083,22.567 52.083,52.084c0,29.512 -22.571,52.083 -52.083,52.083l-329.863,-0c-29.512,-0 -52.083,-22.571 -52.083,-52.083c-0,-29.517 22.571,-52.084 52.083,-52.084Zm451.388,520.834l-555.554,-0c-29.513,-0 -52.084,-22.571 -52.084,-52.084c0,-29.516 22.571,-52.083 52.084,-52.083l555.554,-0c29.516,-0 52.083,22.567 52.083,52.083c0,29.513 -22.567,52.084 -52.083,52.084Zm-0,-208.334l-555.554,0c-29.513,0 -52.084,-22.571 -52.084,-52.083c0,-29.517 22.571,-52.083 52.084,-52.083l555.554,-0c29.516,-0 52.083,22.566 52.083,52.083c0,29.512 -22.567,52.083 -52.083,52.083Z" style="fill:#fff;fill-opacity:0.98;fill-rule:nonzero;stroke:#fff;stroke-width:4.17px;"/></svg>